<svg width="152" height="24" viewBox="0 0 152 24" fill="none" xmlns="http://www.w3.org/2000/svg">
<g clip-path="url(#clip0_293_1011)">
<path d="M8.24228 7.33992L1.86228 8.26492L1.74928 8.28792C1.57822 8.33333 1.42227 8.42333 1.29737 8.54872C1.17247 8.67412 1.08308 8.83041 1.03834 9.00165C0.993598 9.17289 0.995105 9.35293 1.04271 9.5234C1.09031 9.69386 1.18229 9.84864 1.30928 9.97192L5.93128 14.4709L4.84128 20.8259L4.82828 20.9359C4.81781 21.1128 4.85454 21.2894 4.93473 21.4474C5.01491 21.6055 5.13566 21.7394 5.28461 21.8354C5.43356 21.9315 5.60537 21.9862 5.78243 21.994C5.95949 22.0018 6.13544 21.9625 6.29228 21.8799L11.9983 18.8799L17.6913 21.8799L17.7913 21.9259C17.9563 21.9909 18.1357 22.0109 18.311 21.9837C18.4863 21.9565 18.6513 21.8832 18.7889 21.7712C18.9265 21.6592 19.0318 21.5127 19.0941 21.3466C19.1564 21.1804 19.1734 21.0008 19.1433 20.8259L18.0523 14.4709L22.6763 9.97092L22.7543 9.88592C22.8657 9.74869 22.9388 9.58438 22.966 9.40972C22.9932 9.23506 22.9737 9.0563 22.9094 8.89165C22.845 8.72701 22.7382 8.58235 22.5998 8.47244C22.4613 8.36252 22.2962 8.29126 22.1213 8.26592L15.7413 7.33992L12.8893 1.55992C12.8068 1.39246 12.679 1.25144 12.5205 1.15283C12.3619 1.05422 12.179 1.00195 11.9923 1.00195C11.8056 1.00195 11.6226 1.05422 11.4641 1.15283C11.3056 1.25144 11.1778 1.39246 11.0953 1.55992L8.24228 7.33992Z" fill="#FBBF24"/>
</g>
<g clip-path="url(#clip1_293_1011)">
<path d="M40.2423 7.33992L33.8623 8.26492L33.7493 8.28792C33.5782 8.33333 33.4223 8.42333 33.2974 8.54872C33.1725 8.67412 33.0831 8.83041 33.0383 9.00165C32.9936 9.17289 32.9951 9.35293 33.0427 9.5234C33.0903 9.69386 33.1823 9.84864 33.3093 9.97192L37.9313 14.4709L36.8413 20.8259L36.8283 20.9359C36.8178 21.1128 36.8545 21.2894 36.9347 21.4474C37.0149 21.6055 37.1357 21.7394 37.2846 21.8354C37.4336 21.9315 37.6054 21.9862 37.7824 21.994C37.9595 22.0018 38.1354 21.9625 38.2923 21.8799L43.9983 18.8799L49.6913 21.8799L49.7913 21.9259C49.9563 21.9909 50.1357 22.0109 50.311 21.9837C50.4863 21.9565 50.6513 21.8832 50.7889 21.7712C50.9265 21.6592 51.0318 21.5127 51.0941 21.3466C51.1564 21.1804 51.1734 21.0008 51.1433 20.8259L50.0523 14.4709L54.6763 9.97092L54.7543 9.88592C54.8657 9.74869 54.9388 9.58438 54.966 9.40972C54.9932 9.23506 54.9737 9.0563 54.9094 8.89165C54.845 8.72701 54.7382 8.58235 54.5998 8.47244C54.4613 8.36252 54.2962 8.29126 54.1213 8.26592L47.7413 7.33992L44.8893 1.55992C44.8068 1.39246 44.679 1.25144 44.5205 1.15283C44.3619 1.05422 44.179 1.00195 43.9923 1.00195C43.8056 1.00195 43.6226 1.05422 43.4641 1.15283C43.3056 1.25144 43.1778 1.39246 43.0953 1.55992L40.2423 7.33992Z" fill="#FBBF24"/>
</g>
<g clip-path="url(#clip2_293_1011)">
<path d="M72.2423 7.33992L65.8623 8.26492L65.7493 8.28792C65.5782 8.33333 65.4223 8.42333 65.2974 8.54872C65.1725 8.67412 65.0831 8.83041 65.0383 9.00165C64.9936 9.17289 64.9951 9.35293 65.0427 9.5234C65.0903 9.69386 65.1823 9.84864 65.3093 9.97192L69.9313 14.4709L68.8413 20.8259L68.8283 20.9359C68.8178 21.1128 68.8545 21.2894 68.9347 21.4474C69.0149 21.6055 69.1357 21.7394 69.2846 21.8354C69.4336 21.9315 69.6054 21.9862 69.7824 21.994C69.9595 22.0018 70.1354 21.9625 70.2923 21.8799L75.9983 18.8799L81.6913 21.8799L81.7913 21.9259C81.9563 21.9909 82.1357 22.0109 82.311 21.9837C82.4863 21.9565 82.6513 21.8832 82.7889 21.7712C82.9265 21.6592 83.0318 21.5127 83.0941 21.3466C83.1564 21.1804 83.1734 21.0008 83.1433 20.8259L82.0523 14.4709L86.6763 9.97092L86.7543 9.88592C86.8657 9.74869 86.9388 9.58438 86.966 9.40972C86.9932 9.23506 86.9737 9.0563 86.9094 8.89165C86.845 8.72701 86.7382 8.58235 86.5998 8.47244C86.4613 8.36252 86.2962 8.29126 86.1213 8.26592L79.7413 7.33992L76.8893 1.55992C76.8068 1.39246 76.679 1.25144 76.5205 1.15283C76.3619 1.05422 76.179 1.00195 75.9923 1.00195C75.8056 1.00195 75.6226 1.05422 75.4641 1.15283C75.3056 1.25144 75.1778 1.39246 75.0953 1.55992L72.2423 7.33992Z" fill="#FBBF24"/>
</g>
<g clip-path="url(#clip3_293_1011)">
<path d="M104.242 7.33992L97.8623 8.26492L97.7493 8.28792C97.5782 8.33333 97.4223 8.42333 97.2974 8.54872C97.1725 8.67412 97.0831 8.83041 97.0383 9.00165C96.9936 9.17289 96.9951 9.35293 97.0427 9.5234C97.0903 9.69386 97.1823 9.84864 97.3093 9.97192L101.931 14.4709L100.841 20.8259L100.828 20.9359C100.818 21.1128 100.855 21.2894 100.935 21.4474C101.015 21.6055 101.136 21.7394 101.285 21.8354C101.434 21.9315 101.605 21.9862 101.782 21.994C101.959 22.0018 102.135 21.9625 102.292 21.8799L107.998 18.8799L113.691 21.8799L113.791 21.9259C113.956 21.9909 114.136 22.0109 114.311 21.9837C114.486 21.9565 114.651 21.8832 114.789 21.7712C114.926 21.6592 115.032 21.5127 115.094 21.3466C115.156 21.1804 115.173 21.0008 115.143 20.8259L114.052 14.4709L118.676 9.97092L118.754 9.88592C118.866 9.74869 118.939 9.58438 118.966 9.40972C118.993 9.23506 118.974 9.0563 118.909 8.89165C118.845 8.72701 118.738 8.58235 118.6 8.47244C118.461 8.36252 118.296 8.29126 118.121 8.26592L111.741 7.33992L108.889 1.55992C108.807 1.39246 108.679 1.25144 108.52 1.15283C108.362 1.05422 108.179 1.00195 107.992 1.00195C107.806 1.00195 107.623 1.05422 107.464 1.15283C107.306 1.25144 107.178 1.39246 107.095 1.55992L104.242 7.33992Z" fill="#FBBF24"/>
</g>
<g clip-path="url(#clip4_293_1011)">
<path d="M136.242 7.33992L129.862 8.26492L129.749 8.28792C129.578 8.33333 129.422 8.42333 129.297 8.54872C129.172 8.67412 129.083 8.83041 129.038 9.00165C128.994 9.17289 128.995 9.35293 129.043 9.5234C129.09 9.69386 129.182 9.84864 129.309 9.97192L133.931 14.4709L132.841 20.8259L132.828 20.9359C132.818 21.1128 132.855 21.2894 132.935 21.4474C133.015 21.6055 133.136 21.7394 133.285 21.8354C133.434 21.9315 133.605 21.9862 133.782 21.994C133.959 22.0018 134.135 21.9625 134.292 21.8799L139.998 18.8799L145.691 21.8799L145.791 21.9259C145.956 21.9909 146.136 22.0109 146.311 21.9837C146.486 21.9565 146.651 21.8832 146.789 21.7712C146.926 21.6592 147.032 21.5127 147.094 21.3466C147.156 21.1804 147.173 21.0008 147.143 20.8259L146.052 14.4709L150.676 9.97092L150.754 9.88592C150.866 9.74869 150.939 9.58438 150.966 9.40972C150.993 9.23506 150.974 9.0563 150.909 8.89165C150.845 8.72701 150.738 8.58235 150.6 8.47244C150.461 8.36252 150.296 8.29126 150.121 8.26592L143.741 7.33992L140.889 1.55992C140.807 1.39246 140.679 1.25144 140.52 1.15283C140.362 1.05422 140.179 1.00195 139.992 1.00195C139.806 1.00195 139.623 1.05422 139.464 1.15283C139.306 1.25144 139.178 1.39246 139.095 1.55992L136.242 7.33992Z" fill="#FBBF24"/>
</g>
<defs>
<clipPath id="clip0_293_1011">
<rect width="24" height="24" fill="white"/>
</clipPath>
<clipPath id="clip1_293_1011">
<rect width="24" height="24" fill="white" transform="translate(32)"/>
</clipPath>
<clipPath id="clip2_293_1011">
<rect width="24" height="24" fill="white" transform="translate(64)"/>
</clipPath>
<clipPath id="clip3_293_1011">
<rect width="24" height="24" fill="white" transform="translate(96)"/>
</clipPath>
<clipPath id="clip4_293_1011">
<rect width="24" height="24" fill="white" transform="translate(128)"/>
</clipPath>
</defs>
</svg>
