<svg width="126" height="29" viewBox="0 0 126 29" fill="none" xmlns="http://www.w3.org/2000/svg">
<path d="M32.8366 0V25.0992H26.1938V4.30272L20.1549 25.0992H12.7195L6.6428 4.15175V25.0992H0V0H11.4362L16.5315 18.23L21.6646 0H32.8366Z" fill="white"/>
<path d="M37.2471 25.1007H30.8027L38.7822 0.00109863H45.3994L37.2471 25.1007Z" fill="white"/>
<path d="M49.2354 0.00012207C55.0101 0.00012207 57.3125 3.73691 57.3125 8.30383C57.3124 13.1725 55.0099 16.9093 49.2354 16.9093H41.9141V25.0988H38.0996L42.4268 11.7755H47.0088C49.4244 11.7755 50.3682 10.3036 50.3682 8.34094C50.3681 6.41633 49.4623 5.09503 47.085 5.09485H44.5977L46.252 0.00109863H43.7803V0.00012207H49.2354Z" fill="white"/>
<path d="M47.9152 18.8053H48.4335V20.8662H47.6807C46.6565 20.8662 46.2246 21.3598 46.2246 22.6061V25.0742H44.102V18.904H46.1629V20.1751C46.4097 19.2866 46.9156 18.8053 47.9152 18.8053ZM52.3003 23.8525C52.9296 23.8525 53.3122 23.581 53.4849 23.2108H55.5458C55.336 24.2721 54.4968 25.2717 52.2509 25.2717C49.7335 25.2717 48.845 23.6674 48.845 21.9768C48.845 20.1874 49.8815 18.7066 52.2509 18.7066C54.7683 18.7066 55.5705 20.2985 55.5705 22.0138C55.5705 22.2113 55.5581 22.3964 55.5334 22.5321H50.9058C51.0292 23.5193 51.5105 23.8525 52.3003 23.8525ZM52.2756 20.1011C51.5105 20.1011 51.0662 20.4096 50.9305 21.2981H53.559C53.4849 20.5206 53.1024 20.1011 52.2756 20.1011ZM58.3546 25.2346C57.1205 25.2346 56.3061 24.5312 56.3061 23.4453C56.3061 22.4581 56.7133 21.804 58.4163 21.5202L59.8107 21.2734C60.3784 21.1747 60.5265 21.0266 60.5265 20.7057C60.5265 20.3355 60.3043 20.1134 59.6009 20.1134C58.8605 20.1134 58.5026 20.4096 58.4903 20.9525H56.4295C56.4912 19.6445 57.6265 18.7066 59.5762 18.7066C61.526 18.7066 62.4886 19.5087 62.4886 20.9155V23.3712C62.4886 24.0253 62.5256 24.5683 62.5996 25.0742H60.7733C60.7116 24.7163 60.6745 24.2968 60.6745 23.7908C60.366 24.6917 59.6009 25.2346 58.3546 25.2346ZM59.1567 23.8525C59.9588 23.8525 60.5265 23.2849 60.5265 22.1742V21.9398C60.2303 22.1619 59.9465 22.2359 59.5639 22.3347L59.206 22.421C58.6137 22.5691 58.3916 22.7789 58.3916 23.1985C58.3916 23.6304 58.7248 23.8525 59.1567 23.8525ZM63.3545 21.9891C63.3545 20.3232 64.2924 18.7066 66.8468 18.7066C69.0804 18.7066 70.1664 19.9653 70.2158 21.5079H68.1302C68.0685 20.7798 67.6983 20.3602 66.8715 20.3602C65.983 20.3602 65.4771 20.7551 65.4771 21.9891C65.4771 23.2232 65.9583 23.6181 66.8345 23.6181C67.7107 23.6181 68.0809 23.1368 68.1549 22.4581H70.2404C70.1911 23.9266 69.1668 25.2717 66.8715 25.2717C64.3171 25.2717 63.3545 23.6551 63.3545 21.9891ZM75.2432 25.0742H74.1202C72.2322 25.0742 71.6398 24.2351 71.6398 22.6432V20.4959H70.5539V19.5087L71.8126 18.9534L72.6887 17.4109H73.7624V18.904H75.4406V20.4959H73.7624V23.3959H75.2432V25.0742ZM79.417 25.2717C76.8009 25.2717 75.8877 23.6551 75.8877 21.9891C75.8877 20.3355 76.8009 18.7066 79.417 18.7066C82.0332 18.7066 82.9587 20.3355 82.9587 21.9891C82.9587 23.6427 82.0332 25.2717 79.417 25.2717ZM78.0102 21.9891C78.0102 23.2232 78.4051 23.6181 79.417 23.6181C80.4289 23.6181 80.8238 23.2232 80.8238 21.9891C80.8238 20.7551 80.4289 20.3602 79.417 20.3602C78.4051 20.3602 78.0102 20.7551 78.0102 21.9891ZM87.6598 18.8053H88.1781V20.8662H87.4254C86.4011 20.8662 85.9692 21.3598 85.9692 22.6061V25.0742H83.8467V18.904H85.9075V20.1751C86.1543 19.2866 86.6603 18.8053 87.6598 18.8053ZM88.5744 23.0874H90.4995C90.5488 23.5934 90.9684 24.0006 91.7582 24.0006C92.4492 24.0006 92.7207 23.7785 92.7207 23.4206C92.7207 23.1121 92.6097 22.853 91.8939 22.7666L90.5858 22.6185C89.3888 22.4827 88.7471 21.841 88.7471 20.7674C88.7471 19.2989 90.0058 18.7066 91.6594 18.7066C93.3624 18.7066 94.5471 19.2866 94.6705 20.7304H92.7454C92.6837 20.2491 92.3505 19.9653 91.6718 19.9653C90.956 19.9653 90.6846 20.2245 90.6846 20.57C90.6846 20.8291 90.8326 21.0636 91.4126 21.1253L92.6837 21.2487C94.1399 21.3968 94.7445 21.9891 94.7445 23.1738C94.7445 24.3461 94.0165 25.2717 91.7211 25.2717C89.4629 25.2717 88.6237 24.2227 88.5744 23.0874ZM97.3465 25.0742H95.3474V23.2232H97.3465V25.0742ZM98.0377 21.9891C98.0377 20.3232 98.9755 18.7066 101.53 18.7066C103.764 18.7066 104.85 19.9653 104.899 21.5079H102.813C102.752 20.7798 102.381 20.3602 101.555 20.3602C100.666 20.3602 100.16 20.7551 100.16 21.9891C100.16 23.2232 100.641 23.6181 101.518 23.6181C102.394 23.6181 102.764 23.1368 102.838 22.4581H104.924C104.874 23.9266 103.85 25.2717 101.555 25.2717C99.0002 25.2717 98.0377 23.6551 98.0377 21.9891ZM109.063 25.2717C106.447 25.2717 105.533 23.6551 105.533 21.9891C105.533 20.3355 106.447 18.7066 109.063 18.7066C111.679 18.7066 112.605 20.3355 112.605 21.9891C112.605 23.6427 111.679 25.2717 109.063 25.2717ZM107.656 21.9891C107.656 23.2232 108.051 23.6181 109.063 23.6181C110.075 23.6181 110.47 23.2232 110.47 21.9891C110.47 20.7551 110.075 20.3602 109.063 20.3602C108.051 20.3602 107.656 20.7551 107.656 21.9891ZM121.933 18.7066C123.55 18.7066 124.29 19.7062 124.29 21.3227V25.0742H122.168V21.6436C122.168 20.8538 121.859 20.4219 121.156 20.4219C120.317 20.4219 119.934 20.9649 119.934 22.1742V25.0742H117.849V21.6436C117.849 20.8538 117.54 20.4219 116.837 20.4219C116.01 20.4219 115.615 20.9649 115.615 22.1742V25.0742H113.492V18.904H115.615V19.953C115.998 19.1879 116.652 18.7066 117.713 18.7066C118.762 18.7066 119.44 19.2002 119.749 20.0887C120.132 19.2496 120.798 18.7066 121.933 18.7066Z" fill="white"/>
</svg>
