<svg width="28" height="28" viewBox="0 0 28 28" fill="none" xmlns="http://www.w3.org/2000/svg">
<path d="M13.8189 0C10.0662 0 9.59529 0.0164094 8.12139 0.0834851C6.65038 0.150849 5.64628 0.383743 4.7677 0.725455C3.8589 1.07839 3.08798 1.55052 2.31994 2.31886C1.55133 3.08692 1.07922 3.85786 0.725144 4.76641C0.382579 5.6453 0.149404 6.64971 0.0831943 8.1202C0.0172721 9.59414 0 10.0654 0 13.8182C0 17.571 0.0166967 18.0405 0.0834826 19.5144C0.151132 20.9855 0.384019 21.9896 0.725433 22.8682C1.07865 23.7771 1.55076 24.548 2.31908 25.3161C3.08683 26.0847 3.85775 26.558 4.76598 26.9109C5.64513 27.2526 6.64951 27.4855 8.12024 27.5529C9.59413 27.62 10.0648 27.6364 13.8172 27.6364C17.5702 27.6364 18.0397 27.62 19.5136 27.5529C20.9846 27.4855 21.9898 27.2526 22.869 26.9109C23.7775 26.558 24.5473 26.0847 25.315 25.3161C26.0836 24.548 26.5557 23.7771 26.9098 22.8685C27.2495 21.9896 27.4827 20.9852 27.5518 19.5147C27.618 18.0408 27.6352 17.571 27.6352 13.8182C27.6352 10.0654 27.618 9.59442 27.5518 8.12048C27.4827 6.64942 27.2495 5.6453 26.9098 4.7667C26.5557 3.85786 26.0836 3.08692 25.315 2.31886C24.5464 1.55023 23.7778 1.07811 22.8681 0.725455C21.9872 0.383743 20.9826 0.150849 19.5115 0.0834851C18.0377 0.0164094 17.5684 0 13.8146 0H13.8189ZM12.5793 2.49015C12.9472 2.48958 13.3577 2.49015 13.8189 2.49015C17.5083 2.49015 17.9455 2.50339 19.4024 2.56961C20.7497 2.63121 21.4809 2.85633 21.9679 3.04547C22.6128 3.29592 23.0725 3.59532 23.5558 4.07895C24.0395 4.56259 24.3388 5.0232 24.5899 5.66805C24.779 6.15456 25.0044 6.88577 25.0657 8.23304C25.1319 9.68971 25.1463 10.1273 25.1463 13.815C25.1463 17.5027 25.1319 17.9403 25.0657 19.397C25.0041 20.7443 24.779 21.4755 24.5899 21.962C24.3394 22.6068 24.0395 23.066 23.5558 23.5493C23.0722 24.033 22.6131 24.3324 21.9679 24.5828C21.4814 24.7728 20.7497 24.9974 19.4024 25.059C17.9458 25.1252 17.5083 25.1396 13.8189 25.1396C10.1293 25.1396 9.69201 25.1252 8.23539 25.059C6.88816 24.9968 6.15697 24.7717 5.6696 24.5825C5.02477 24.3321 4.56418 24.0327 4.08056 23.5491C3.59694 23.0654 3.29755 22.606 3.04653 21.9608C2.8574 21.4743 2.632 20.7431 2.57068 19.3958C2.50447 17.9392 2.49123 17.5016 2.49123 13.8116C2.49123 10.1215 2.50447 9.68626 2.57068 8.22959C2.63228 6.88232 2.8574 6.15111 3.04653 5.66401C3.29698 5.01917 3.59694 4.55856 4.08056 4.07492C4.56418 3.59129 5.02477 3.29189 5.6696 3.04086C6.15668 2.85086 6.88816 2.62632 8.23539 2.56442C9.51008 2.50685 10.0041 2.48958 12.5793 2.4867V2.49015ZM21.1947 4.78455C20.2793 4.78455 19.5366 5.52641 19.5366 6.44215C19.5366 7.35761 20.2793 8.10033 21.1947 8.10033C22.1101 8.10033 22.8529 7.35761 22.8529 6.44215C22.8529 5.5267 22.1101 4.78397 21.1947 4.78397V4.78455ZM13.8189 6.72197C9.90014 6.72197 6.72292 9.89929 6.72292 13.8182C6.72292 17.7371 9.90014 20.913 13.8189 20.913C17.7377 20.913 20.9138 17.7371 20.9138 13.8182C20.9138 9.89929 17.7374 6.72197 13.8186 6.72197H13.8189ZM13.8189 9.21212C16.3625 9.21212 18.4248 11.2742 18.4248 13.8182C18.4248 16.3619 16.3625 18.4242 13.8189 18.4242C11.275 18.4242 9.21299 16.3619 9.21299 13.8182C9.21299 11.2742 11.275 9.21212 13.8189 9.21212V9.21212Z" fill="url(#paint0_radial_544_816)"/>
<defs>
<radialGradient id="paint0_radial_544_816" cx="0" cy="0" r="1" gradientUnits="userSpaceOnUse" gradientTransform="translate(7.34065 29.7649) rotate(-90) scale(27.3897 25.4735)">
<stop stop-color="#FFDD55"/>
<stop offset="0.1" stop-color="#FFDD55"/>
<stop offset="0.5" stop-color="#FF543E"/>
<stop offset="1" stop-color="#C837AB"/>
</radialGradient>
</defs>
</svg>
